# https://github.com/mikedh/trimesh
v 10.75000000 -7.25000000 0.00000000 0.00000000 0.00000000 0.78431373
v 10.75000000 -8.80000000 0.00000000 0.00000000 0.00000000 0.78431373
v 11.10000000 -8.80000000 0.00000000 0.00000000 0.00000000 0.78431373
v 11.80000000 -9.15000000 0.00000000 0.00000000 0.00000000 0.78431373
v 12.25000000 -9.95000000 0.00000000 0.00000000 0.00000000 0.78431373
v 12.25000000 -10.25000000 0.00000000 0.00000000 0.00000000 0.78431373
v 20.75000000 -10.25000000 0.00000000 0.00000000 0.00000000 0.78431373
v 20.75000000 -0.50000000 0.00000000 0.00000000 0.00000000 0.78431373
v 20.75000000 9.25000000 0.00000000 0.00000000 0.00000000 0.78431373
v 12.25000000 9.25000000 0.00000000 0.00000000 0.00000000 0.78431373
v 12.25000000 1.60000000 0.00000000 0.00000000 0.00000000 0.78431373
v 12.25000000 -6.10000000 0.00000000 0.00000000 0.00000000 0.78431373
v 11.80000000 -6.90000000 0.00000000 0.00000000 0.00000000 0.78431373
v 11.10000000 -7.25000000 0.00000000 0.00000000 0.00000000 0.78431373
v -19.75000000 -2.75000000 0.00000000 0.00000000 0.00000000 0.78431373
v -15.10000000 -2.80000000 0.00000000 0.00000000 0.00000000 0.78431373
v -15.05000000 -2.35000000 0.00000000 0.00000000 0.00000000 0.78431373
v -14.70000000 -1.65000000 0.00000000 0.00000000 0.00000000 0.78431373
v -13.85000000 -1.15000000 0.00000000 0.00000000 0.00000000 0.78431373
v -10.15000000 -1.15000000 0.00000000 0.00000000 0.00000000 0.78431373
v -9.50000000 -1.50000000 0.00000000 0.00000000 0.00000000 0.78431373
v -8.70000000 -0.30000000 0.00000000 0.00000000 0.00000000 0.78431373
v -9.10000000 0.50000000 0.00000000 0.00000000 0.00000000 0.78431373
v -9.10000000 3.50000000 0.00000000 0.00000000 0.00000000 0.78431373
v -8.55000000 4.50000000 0.00000000 0.00000000 0.00000000 0.78431373
v -7.85000000 4.85000000 0.00000000 0.00000000 0.00000000 0.78431373
v -7.45000000 4.85000000 0.00000000 0.00000000 0.00000000 0.78431373
v -7.45000000 7.75000000 0.00000000 0.00000000 0.00000000 0.78431373
v -13.60000000 7.75000000 0.00000000 0.00000000 0.00000000 0.78431373
v -19.75000000 7.75000000 0.00000000 0.00000000 0.00000000 0.78431373
v -4.55000000 4.85000000 0.00000000 0.00000000 0.00000000 0.78431373
v -4.55000000 7.75000000 0.00000000 0.00000000 0.00000000 0.78431373
v -4.15000000 4.85000000 0.00000000 0.00000000 0.00000000 0.78431373
v -3.30000000 4.35000000 0.00000000 0.00000000 0.00000000 0.78431373
v -2.90000000 3.50000000 0.00000000 0.00000000 0.00000000 0.78431373
v -2.90000000 2.00000000 0.00000000 0.00000000 0.00000000 0.78431373
v -0.05000000 1.95000000 0.00000000 0.00000000 0.00000000 0.78431373
v 0.00000000 2.40000000 0.00000000 0.00000000 0.00000000 0.78431373
v 0.35000000 3.10000000 0.00000000 0.00000000 0.00000000 0.78431373
v 1.15000000 3.55000000 0.00000000 0.00000000 0.00000000 0.78431373
v 1.55000000 3.55000000 0.00000000 0.00000000 0.00000000 0.78431373
v 1.55000000 7.75000000 0.00000000 0.00000000 0.00000000 0.78431373
v 4.45000000 3.55000000 0.00000000 0.00000000 0.00000000 0.78431373
v 4.45000000 7.75000000 0.00000000 0.00000000 0.00000000 0.78431373
v 4.85000000 3.55000000 0.00000000 0.00000000 0.00000000 0.78431373
v 5.55000000 3.20000000 0.00000000 0.00000000 0.00000000 0.78431373
v 6.00000000 2.40000000 0.00000000 0.00000000 0.00000000 0.78431373
v 6.05000000 1.95000000 0.00000000 0.00000000 0.00000000 0.78431373
v 8.80000000 2.00000000 0.00000000 0.00000000 0.00000000 0.78431373
v 8.80000000 7.75000000 0.00000000 0.00000000 0.00000000 0.78431373
v -2.90000000 0.55000000 0.00000000 0.00000000 0.00000000 0.78431373
v -0.10000000 0.55000000 0.00000000 0.00000000 0.00000000 0.78431373
v 6.10000000 -5.85000000 0.00000000 0.00000000 0.00000000 0.78431373
v 8.80000000 -5.85000000 0.00000000 0.00000000 0.00000000 0.78431373
v -9.30000000 -1.65000000 0.00000000 0.00000000 0.00000000 0.78431373
v -8.90000000 -2.50000000 0.00000000 0.00000000 0.00000000 0.78431373
v -8.90000000 -5.50000000 0.00000000 0.00000000 0.00000000 0.78431373
v -9.45000000 -6.50000000 0.00000000 0.00000000 0.00000000 0.78431373
v -10.15000000 -6.85000000 0.00000000 0.00000000 0.00000000 0.78431373
v -10.45000000 -6.85000000 0.00000000 0.00000000 0.00000000 0.78431373
v -10.40000000 -8.80000000 0.00000000 0.00000000 0.00000000 0.78431373
v 1.40000000 -8.80000000 0.00000000 0.00000000 0.00000000 0.78431373
v 1.45000000 -7.55000000 0.00000000 0.00000000 0.00000000 0.78431373
v 1.15000000 -7.55000000 0.00000000 0.00000000 0.00000000 0.78431373
v 0.45000000 -7.20000000 0.00000000 0.00000000 0.00000000 0.78431373
v -0.05000000 -6.25000000 0.00000000 0.00000000 0.00000000 0.78431373
v -3.30000000 -0.35000000 0.00000000 0.00000000 0.00000000 0.78431373
v -4.15000000 -0.85000000 0.00000000 0.00000000 0.00000000 0.78431373
v -7.85000000 -0.85000000 0.00000000 0.00000000 0.00000000 0.78431373
v -8.55000000 -0.50000000 0.00000000 0.00000000 0.00000000 0.78431373
v -19.75000000 -5.25000000 0.00000000 0.00000000 0.00000000 0.78431373
v -15.10000000 -5.20000000 0.00000000 0.00000000 0.00000000 0.78431373
v -19.75000000 -8.80000000 0.00000000 0.00000000 0.00000000 0.78431373
v -13.60000000 -8.80000000 0.00000000 0.00000000 0.00000000 0.78431373
v -13.55000000 -6.85000000 0.00000000 0.00000000 0.00000000 0.78431373
v -13.85000000 -6.85000000 0.00000000 0.00000000 0.00000000 0.78431373
v -14.70000000 -6.35000000 0.00000000 0.00000000 0.00000000 0.78431373
v -15.05000000 -5.65000000 0.00000000 0.00000000 0.00000000 0.78431373
v 4.55000000 -7.55000000 0.00000000 0.00000000 0.00000000 0.78431373
v 4.60000000 -8.80000000 0.00000000 0.00000000 0.00000000 0.78431373
v 9.95000000 -7.25000000 0.00000000 0.00000000 0.00000000 0.78431373
v 9.25000000 -6.90000000 0.00000000 0.00000000 0.00000000 0.78431373
v 8.80000000 -6.10000000 0.00000000 0.00000000 0.00000000 0.78431373
v 6.00000000 -6.40000000 0.00000000 0.00000000 0.00000000 0.78431373
v 5.65000000 -7.10000000 0.00000000 0.00000000 0.00000000 0.78431373
v 4.85000000 -7.55000000 0.00000000 0.00000000 0.00000000 0.78431373
f 1 2 3
f 14 1 3
f 13 14 3
f 13 3 4
f 12 13 4
f 12 4 5
f 5 6 7
f 12 5 7
f 12 7 8
f 11 12 8
f 9 10 11
f 8 9 11
f 20 21 22
f 20 22 23
f 26 27 28
f 25 26 28
f 24 25 28
f 15 16 17
f 20 23 24
f 15 17 18
f 15 18 19
f 24 28 29
f 19 20 24
f 19 24 29
f 19 29 30
f 15 19 30
f 27 31 32
f 27 32 28
f 36 37 38
f 32 31 33
f 35 36 38
f 35 38 39
f 32 33 34
f 34 35 39
f 40 41 42
f 34 39 40
f 34 40 42
f 34 42 32
f 41 43 44
f 41 44 42
f 47 48 49
f 46 47 49
f 44 43 45
f 45 46 49
f 45 49 50
f 45 50 44
f 52 37 36
f 51 52 36
f 48 53 54
f 48 54 49
f 62 63 64
f 70 22 21
f 70 21 55
f 69 70 55
f 62 64 65
f 69 55 56
f 59 60 61
f 58 59 61
f 52 51 67
f 57 58 61
f 52 67 68
f 69 56 57
f 68 69 57
f 66 52 68
f 65 66 68
f 65 68 57
f 57 61 62
f 57 62 65
f 71 72 16
f 71 16 15
f 74 75 76
f 74 76 77
f 74 77 78
f 78 72 71
f 73 74 78
f 71 73 78
f 86 79 80
f 2 1 81
f 85 86 80
f 2 81 82
f 83 54 53
f 83 53 84
f 82 83 84
f 82 84 85
f 80 2 82
f 80 82 85
f 74 61 60
f 74 60 75
f 62 80 79
f 62 79 63