# https://github.com/mikedh/trimesh
v 10.75000000 -6.85000000 0.00000000 0.00000000 0.00000000 0.78431373
v 10.75000000 -9.20000000 0.00000000 0.00000000 0.00000000 0.78431373
v 11.10000000 -9.20000000 0.00000000 0.00000000 0.00000000 0.78431373
v 11.65000000 -9.55000000 0.00000000 0.00000000 0.00000000 0.78431373
v 11.85000000 -9.95000000 0.00000000 0.00000000 0.00000000 0.78431373
v 11.85000000 -10.65000000 0.00000000 0.00000000 0.00000000 0.78431373
v 21.15000000 -10.65000000 0.00000000 0.00000000 0.00000000 0.78431373
v 21.15000000 -0.50000000 0.00000000 0.00000000 0.00000000 0.78431373
v 21.15000000 9.65000000 0.00000000 0.00000000 0.00000000 0.78431373
v 11.85000000 9.65000000 0.00000000 0.00000000 0.00000000 0.78431373
v 11.85000000 1.80000000 0.00000000 0.00000000 0.00000000 0.78431373
v 11.85000000 -6.10000000 0.00000000 0.00000000 0.00000000 0.78431373
v 11.50000000 -6.65000000 0.00000000 0.00000000 0.00000000 0.78431373
v 11.10000000 -6.85000000 0.00000000 0.00000000 0.00000000 0.78431373
v -20.15000000 -2.75000000 0.00000000 0.00000000 0.00000000 0.78431373
v -14.70000000 -2.80000000 0.00000000 0.00000000 0.00000000 0.78431373
v -14.70000000 -2.50000000 0.00000000 0.00000000 0.00000000 0.78431373
v -14.45000000 -1.95000000 0.00000000 0.00000000 0.00000000 0.78431373
v -13.85000000 -1.55000000 0.00000000 0.00000000 0.00000000 0.78431373
v -10.15000000 -1.55000000 0.00000000 0.00000000 0.00000000 0.78431373
v -9.80000000 -1.75000000 0.00000000 0.00000000 0.00000000 0.78431373
v -8.45000000 0.00000000 0.00000000 0.00000000 0.00000000 0.78431373
v -8.70000000 0.50000000 0.00000000 0.00000000 0.00000000 0.78431373
v -8.70000000 3.50000000 0.00000000 0.00000000 0.00000000 0.78431373
v -8.45000000 4.05000000 0.00000000 0.00000000 0.00000000 0.78431373
v -8.25000000 4.25000000 0.00000000 0.00000000 0.00000000 0.78431373
v -7.85000000 4.45000000 0.00000000 0.00000000 0.00000000 0.78431373
v -7.45000000 4.45000000 0.00000000 0.00000000 0.00000000 0.78431373
v -7.45000000 8.15000000 0.00000000 0.00000000 0.00000000 0.78431373
v -13.80000000 8.15000000 0.00000000 0.00000000 0.00000000 0.78431373
v -20.15000000 8.15000000 0.00000000 0.00000000 0.00000000 0.78431373
v -4.55000000 4.45000000 0.00000000 0.00000000 0.00000000 0.78431373
v -4.55000000 8.15000000 0.00000000 0.00000000 0.00000000 0.78431373
v -4.15000000 4.45000000 0.00000000 0.00000000 0.00000000 0.78431373
v -3.55000000 4.05000000 0.00000000 0.00000000 0.00000000 0.78431373
v -3.30000000 3.50000000 0.00000000 0.00000000 0.00000000 0.78431373
v -3.30000000 2.00000000 0.00000000 0.00000000 0.00000000 0.78431373
v 0.35000000 1.95000000 0.00000000 0.00000000 0.00000000 0.78431373
v 0.35000000 2.25000000 0.00000000 0.00000000 0.00000000 0.78431373
v 0.60000000 2.80000000 0.00000000 0.00000000 0.00000000 0.78431373
v 1.15000000 3.15000000 0.00000000 0.00000000 0.00000000 0.78431373
v 1.55000000 3.15000000 0.00000000 0.00000000 0.00000000 0.78431373
v 1.55000000 8.15000000 0.00000000 0.00000000 0.00000000 0.78431373
v 4.45000000 3.15000000 0.00000000 0.00000000 0.00000000 0.78431373
v 4.45000000 8.15000000 0.00000000 0.00000000 0.00000000 0.78431373
v 4.85000000 3.15000000 0.00000000 0.00000000 0.00000000 0.78431373
v 5.25000000 2.95000000 0.00000000 0.00000000 0.00000000 0.78431373
v 5.60000000 2.40000000 0.00000000 0.00000000 0.00000000 0.78431373
v 5.65000000 1.95000000 0.00000000 0.00000000 0.00000000 0.78431373
v 9.20000000 2.00000000 0.00000000 0.00000000 0.00000000 0.78431373
v 9.20000000 8.15000000 0.00000000 0.00000000 0.00000000 0.78431373
v -3.30000000 0.55000000 0.00000000 0.00000000 0.00000000 0.78431373
v 0.30000000 0.55000000 0.00000000 0.00000000 0.00000000 0.78431373
v 5.70000000 -5.85000000 0.00000000 0.00000000 0.00000000 0.78431373
v 9.20000000 -5.85000000 0.00000000 0.00000000 0.00000000 0.78431373
v -9.55000000 -1.95000000 0.00000000 0.00000000 0.00000000 0.78431373
v -9.30000000 -2.50000000 0.00000000 0.00000000 0.00000000 0.78431373
v -9.30000000 -5.50000000 0.00000000 0.00000000 0.00000000 0.78431373
v -9.55000000 -6.05000000 0.00000000 0.00000000 0.00000000 0.78431373
v -9.75000000 -6.25000000 0.00000000 0.00000000 0.00000000 0.78431373
v -10.15000000 -6.45000000 0.00000000 0.00000000 0.00000000 0.78431373
v -10.45000000 -6.45000000 0.00000000 0.00000000 0.00000000 0.78431373
v -10.40000000 -9.20000000 0.00000000 0.00000000 0.00000000 0.78431373
v 1.40000000 -9.20000000 0.00000000 0.00000000 0.00000000 0.78431373
v 1.45000000 -7.15000000 0.00000000 0.00000000 0.00000000 0.78431373
v 1.15000000 -7.15000000 0.00000000 0.00000000 0.00000000 0.78431373
v 0.75000000 -6.95000000 0.00000000 0.00000000 0.00000000 0.78431373
v 0.35000000 -6.25000000 0.00000000 0.00000000 0.00000000 0.78431373
v -3.55000000 -0.05000000 0.00000000 0.00000000 0.00000000 0.78431373
v -4.15000000 -0.45000000 0.00000000 0.00000000 0.00000000 0.78431373
v -7.85000000 -0.45000000 0.00000000 0.00000000 0.00000000 0.78431373
v -8.25000000 -0.25000000 0.00000000 0.00000000 0.00000000 0.78431373
v -20.15000000 -5.25000000 0.00000000 0.00000000 0.00000000 0.78431373
v -14.70000000 -5.20000000 0.00000000 0.00000000 0.00000000 0.78431373
v -20.15000000 -9.20000000 0.00000000 0.00000000 0.00000000 0.78431373
v -13.60000000 -9.20000000 0.00000000 0.00000000 0.00000000 0.78431373
v -13.55000000 -6.45000000 0.00000000 0.00000000 0.00000000 0.78431373
v -13.85000000 -6.45000000 0.00000000 0.00000000 0.00000000 0.78431373
v -14.45000000 -6.05000000 0.00000000 0.00000000 0.00000000 0.78431373
v -14.70000000 -5.50000000 0.00000000 0.00000000 0.00000000 0.78431373
v 4.55000000 -7.15000000 0.00000000 0.00000000 0.00000000 0.78431373
v 4.60000000 -9.20000000 0.00000000 0.00000000 0.00000000 0.78431373
v 10.20000000 -9.20000000 0.00000000 0.00000000 0.00000000 0.78431373
v 10.25000000 -6.85000000 0.00000000 0.00000000 0.00000000 0.78431373
v 9.95000000 -6.85000000 0.00000000 0.00000000 0.00000000 0.78431373
v 9.55000000 -6.65000000 0.00000000 0.00000000 0.00000000 0.78431373
v 9.20000000 -6.10000000 0.00000000 0.00000000 0.00000000 0.78431373
v 5.65000000 -6.25000000 0.00000000 0.00000000 0.00000000 0.78431373
v 5.40000000 -6.80000000 0.00000000 0.00000000 0.00000000 0.78431373
v 4.85000000 -7.15000000 0.00000000 0.00000000 0.00000000 0.78431373
f 1 2 3
f 14 1 3
f 13 14 3
f 13 3 4
f 13 4 5
f 12 13 5
f 5 6 7
f 12 5 7
f 12 7 8
f 11 12 8
f 9 10 11
f 8 9 11
f 20 21 22
f 20 22 23
f 27 28 29
f 26 27 29
f 25 26 29
f 24 25 29
f 20 23 24
f 15 16 17
f 15 17 18
f 15 18 19
f 24 29 30
f 19 20 24
f 19 24 30
f 19 30 31
f 15 19 31
f 28 32 33
f 28 33 29
f 37 38 39
f 33 32 34
f 36 37 39
f 36 39 40
f 33 34 35
f 35 36 40
f 35 40 41
f 41 42 43
f 35 41 43
f 35 43 33
f 42 44 45
f 42 45 43
f 48 49 50
f 47 48 50
f 46 47 50
f 45 44 46
f 46 50 51
f 46 51 45
f 53 38 37
f 52 53 37
f 49 54 55
f 49 55 50
f 64 65 66
f 72 22 21
f 72 21 56
f 71 72 56
f 64 66 67
f 71 56 57
f 61 62 63
f 60 61 63
f 64 67 68
f 59 60 63
f 58 59 63
f 53 52 69
f 53 69 70
f 71 57 58
f 70 71 58
f 68 53 70
f 68 70 58
f 63 64 68
f 58 63 68
f 73 74 16
f 73 16 15
f 76 77 78
f 76 78 79
f 76 79 80
f 80 74 73
f 75 76 80
f 73 75 80
f 90 81 82
f 83 84 85
f 89 90 82
f 83 85 86
f 88 89 82
f 83 86 87
f 87 55 54
f 87 54 88
f 83 87 88
f 82 83 88
f 76 63 62
f 76 62 77
f 2 1 84
f 83 2 84
f 64 82 81
f 64 81 65