# https://github.com/mikedh/trimesh
v 14.85000000 2.15000000 0.00000000 0.00000000 0.00000000 0.78431373
v 21.15000000 2.15000000 0.00000000 0.00000000 0.00000000 0.78431373
v 21.15000000 9.65000000 0.00000000 0.00000000 0.00000000 0.78431373
v 14.85000000 9.65000000 0.00000000 0.00000000 0.00000000 0.78431373
v 5.25000000 5.90000000 0.00000000 0.00000000 0.00000000 0.78431373
v 5.20000000 8.15000000 0.00000000 0.00000000 0.00000000 0.78431373
v -1.15000000 8.15000000 0.00000000 0.00000000 0.00000000 0.78431373
v -7.50000000 8.15000000 0.00000000 0.00000000 0.00000000 0.78431373
v -13.85000000 8.15000000 0.00000000 0.00000000 0.00000000 0.78431373
v -20.15000000 8.15000000 0.00000000 0.00000000 0.00000000 0.78431373
v -20.15000000 0.80000000 0.00000000 0.00000000 0.00000000 0.78431373
v -14.10000000 0.80000000 0.00000000 0.00000000 0.00000000 0.78431373
v -8.00000000 0.80000000 0.00000000 0.00000000 0.00000000 0.78431373
v -1.90000000 0.80000000 0.00000000 0.00000000 0.00000000 0.78431373
v 4.20000000 0.80000000 0.00000000 0.00000000 0.00000000 0.78431373
v 4.20000000 5.15000000 0.00000000 0.00000000 0.00000000 0.78431373
v 4.55000000 5.70000000 0.00000000 0.00000000 0.00000000 0.78431373
v 4.95000000 5.90000000 0.00000000 0.00000000 0.00000000 0.78431373
v 5.80000000 5.90000000 0.00000000 0.00000000 0.00000000 0.78431373
v 5.85000000 8.15000000 0.00000000 0.00000000 0.00000000 0.78431373
v 6.10000000 5.90000000 0.00000000 0.00000000 0.00000000 0.78431373
v 6.50000000 5.70000000 0.00000000 0.00000000 0.00000000 0.78431373
v 6.85000000 5.15000000 0.00000000 0.00000000 0.00000000 0.78431373
v 6.85000000 1.60000000 0.00000000 0.00000000 0.00000000 0.78431373
v 12.25000000 1.60000000 0.00000000 0.00000000 0.00000000 0.78431373
v 12.20000000 8.15000000 0.00000000 0.00000000 0.00000000 0.78431373
v 14.85000000 1.75000000 0.00000000 0.00000000 0.00000000 0.78431373
v 14.65000000 1.35000000 0.00000000 0.00000000 0.00000000 0.78431373
v 14.05000000 0.95000000 0.00000000 0.00000000 0.00000000 0.78431373
v 13.70000000 0.95000000 0.00000000 0.00000000 0.00000000 0.78431373
v 13.75000000 -1.90000000 0.00000000 0.00000000 0.00000000 0.78431373
v 14.10000000 -1.90000000 0.00000000 0.00000000 0.00000000 0.78431373
v 14.65000000 -2.25000000 0.00000000 0.00000000 0.00000000 0.78431373
v 14.85000000 -2.65000000 0.00000000 0.00000000 0.00000000 0.78431373
v 14.85000000 -3.05000000 0.00000000 0.00000000 0.00000000 0.78431373
v 21.15000000 -3.05000000 0.00000000 0.00000000 0.00000000 0.78431373
v 6.85000000 -2.90000000 0.00000000 0.00000000 0.00000000 0.78431373
v 12.20000000 -2.95000000 0.00000000 0.00000000 0.00000000 0.78431373
v 12.20000000 -2.65000000 0.00000000 0.00000000 0.00000000 0.78431373
v 12.55000000 -2.10000000 0.00000000 0.00000000 0.00000000 0.78431373
v 12.95000000 -1.90000000 0.00000000 0.00000000 0.00000000 0.78431373
v 13.30000000 -1.90000000 0.00000000 0.00000000 0.00000000 0.78431373
v 13.30000000 0.95000000 0.00000000 0.00000000 0.00000000 0.78431373
v 12.95000000 0.95000000 0.00000000 0.00000000 0.00000000 0.78431373
v 12.55000000 1.15000000 0.00000000 0.00000000 0.00000000 0.78431373
v 5.20000000 -9.20000000 0.00000000 0.00000000 0.00000000 0.78431373
v 5.25000000 -6.75000000 0.00000000 0.00000000 0.00000000 0.78431373
v 4.95000000 -6.75000000 0.00000000 0.00000000 0.00000000 0.78431373
v 4.55000000 -6.55000000 0.00000000 0.00000000 0.00000000 0.78431373
v 4.20000000 -6.00000000 0.00000000 0.00000000 0.00000000 0.78431373
v 4.20000000 -1.85000000 0.00000000 0.00000000 0.00000000 0.78431373
v -1.90000000 -1.85000000 0.00000000 0.00000000 0.00000000 0.78431373
v -8.00000000 -1.85000000 0.00000000 0.00000000 0.00000000 0.78431373
v -14.10000000 -1.85000000 0.00000000 0.00000000 0.00000000 0.78431373
v -20.15000000 -1.85000000 0.00000000 0.00000000 0.00000000 0.78431373
v -20.15000000 -9.20000000 0.00000000 0.00000000 0.00000000 0.78431373
v -13.85000000 -9.20000000 0.00000000 0.00000000 0.00000000 0.78431373
v -7.50000000 -9.20000000 0.00000000 0.00000000 0.00000000 0.78431373
v -1.15000000 -9.20000000 0.00000000 0.00000000 0.00000000 0.78431373
v 6.85000000 -5.65000000 0.00000000 0.00000000 0.00000000 0.78431373
v 12.20000000 -5.70000000 0.00000000 0.00000000 0.00000000 0.78431373
v 14.85000000 -10.65000000 0.00000000 0.00000000 0.00000000 0.78431373
v 21.15000000 -10.65000000 0.00000000 0.00000000 0.00000000 0.78431373
v 5.75000000 -6.75000000 0.00000000 0.00000000 0.00000000 0.78431373
v 5.80000000 -9.20000000 0.00000000 0.00000000 0.00000000 0.78431373
v 12.20000000 -9.20000000 0.00000000 0.00000000 0.00000000 0.78431373
v 6.85000000 -5.95000000 0.00000000 0.00000000 0.00000000 0.78431373
v 6.45000000 -6.55000000 0.00000000 0.00000000 0.00000000 0.78431373
v 6.05000000 -6.75000000 0.00000000 0.00000000 0.00000000 0.78431373
f 1 2 3
f 1 3 4
f 18 5 6
f 17 18 6
f 16 17 6
f 16 6 7
f 14 15 16
f 14 16 7
f 14 7 8
f 13 14 8
f 13 8 9
f 12 13 9
f 10 11 12
f 9 10 12
f 5 19 20
f 5 20 6
f 20 19 21
f 20 21 22
f 20 22 23
f 26 20 23
f 23 24 25
f 23 25 26
f 29 30 31
f 29 31 32
f 29 32 33
f 28 29 33
f 27 28 33
f 27 33 34
f 34 35 36
f 2 1 27
f 27 34 36
f 27 36 2
f 41 42 43
f 41 43 44
f 40 41 44
f 40 44 45
f 40 45 25
f 39 40 25
f 37 38 39
f 39 25 24
f 37 39 24
f 42 31 30
f 42 30 43
f 46 47 48
f 46 48 49
f 46 49 50
f 59 46 50
f 50 51 52
f 59 50 52
f 58 59 52
f 58 52 53
f 57 58 53
f 57 53 54
f 54 55 56
f 54 56 57
f 60 61 38
f 60 38 37
f 36 35 62
f 36 62 63
f 69 64 65
f 68 69 65
f 67 68 65
f 61 60 67
f 66 61 67
f 65 66 67
f 46 65 64
f 46 64 47