# https://github.com/mikedh/trimesh
v -21.75000000 -18.75632600 0.00000000 0.00000000 0.00000000 0.78431373
v -21.70000000 -12.20632600 0.00000000 0.00000000 0.00000000 0.78431373
v -22.05000000 -12.20632600 0.00000000 0.00000000 0.00000000 0.78431373
v -22.75000000 -11.85632600 0.00000000 0.00000000 0.00000000 0.78431373
v -23.20000000 -11.05632600 0.00000000 0.00000000 0.00000000 0.78431373
v -23.20000000 -3.30632600 0.00000000 0.00000000 0.00000000 0.78431373
v -23.20000000 4.39367400 0.00000000 0.00000000 0.00000000 0.78431373
v -23.20000000 12.14367400 0.00000000 0.00000000 0.00000000 0.78431373
v -23.20000000 19.84367400 0.00000000 0.00000000 0.00000000 0.78431373
v -34.35000000 19.84367400 0.00000000 0.00000000 0.00000000 0.78431373
v -45.50000000 19.84367400 0.00000000 0.00000000 0.00000000 0.78431373
v -56.65000000 19.84367400 0.00000000 0.00000000 0.00000000 0.78431373
v -67.75000000 19.84367400 0.00000000 0.00000000 0.00000000 0.78431373
v -67.75000000 9.94367400 0.00000000 0.00000000 0.00000000 0.78431373
v -67.75000000 -0.00632600 0.00000000 0.00000000 0.00000000 0.78431373
v -67.75000000 -9.90632600 0.00000000 0.00000000 0.00000000 0.78431373
v -67.75000000 -19.85632600 0.00000000 0.00000000 0.00000000 0.78431373
v -56.65000000 -19.85632600 0.00000000 0.00000000 0.00000000 0.78431373
v -45.50000000 -19.85632600 0.00000000 0.00000000 0.00000000 0.78431373
v -34.35000000 -19.85632600 0.00000000 0.00000000 0.00000000 0.78431373
v -23.20000000 -19.85632600 0.00000000 0.00000000 0.00000000 0.78431373
v -22.80000000 -19.10632600 0.00000000 0.00000000 0.00000000 0.78431373
v -22.10000000 -18.75632600 0.00000000 0.00000000 0.00000000 0.78431373
v 10.80000000 11.24367400 0.00000000 0.00000000 0.00000000 0.78431373
v 10.85000000 18.79367400 0.00000000 0.00000000 0.00000000 0.78431373
v 3.20000000 18.79367400 0.00000000 0.00000000 0.00000000 0.78431373
v -4.45000000 18.79367400 0.00000000 0.00000000 0.00000000 0.78431373
v -12.10000000 18.79367400 0.00000000 0.00000000 0.00000000 0.78431373
v -19.75000000 18.79367400 0.00000000 0.00000000 0.00000000 0.78431373
v -19.75000000 11.24367400 0.00000000 0.00000000 0.00000000 0.78431373
v -12.15000000 11.24367400 0.00000000 0.00000000 0.00000000 0.78431373
v -4.50000000 11.24367400 0.00000000 0.00000000 0.00000000 0.78431373
v 3.15000000 11.24367400 0.00000000 0.00000000 0.00000000 0.78431373
v 11.10000000 11.24367400 0.00000000 0.00000000 0.00000000 0.78431373
v 11.80000000 10.89367400 0.00000000 0.00000000 0.00000000 0.78431373
v 12.25000000 10.09367400 0.00000000 0.00000000 0.00000000 0.78431373
v 12.25000000 2.04367400 0.00000000 0.00000000 0.00000000 0.78431373
v 39.80000000 1.99367400 0.00000000 0.00000000 0.00000000 0.78431373
v 39.80000000 10.39367400 0.00000000 0.00000000 0.00000000 0.78431373
v 39.80000000 18.79367400 0.00000000 0.00000000 0.00000000 0.78431373
v 32.55000000 18.79367400 0.00000000 0.00000000 0.00000000 0.78431373
v 25.30000000 18.79367400 0.00000000 0.00000000 0.00000000 0.78431373
v 18.05000000 18.79367400 0.00000000 0.00000000 0.00000000 0.78431373
v 10.30000000 -1.45632600 0.00000000 0.00000000 0.00000000 0.78431373
v 10.30000000 0.59367400 0.00000000 0.00000000 0.00000000 0.78431373
v 9.95000000 0.59367400 0.00000000 0.00000000 0.00000000 0.78431373
v 9.25000000 0.94367400 0.00000000 0.00000000 0.00000000 0.78431373
v 8.80000000 1.74367400 0.00000000 0.00000000 0.00000000 0.78431373
v 8.80000000 7.79367400 0.00000000 0.00000000 0.00000000 0.78431373
v 1.65000000 7.79367400 0.00000000 0.00000000 0.00000000 0.78431373
v -5.50000000 7.79367400 0.00000000 0.00000000 0.00000000 0.78431373
v -12.65000000 7.79367400 0.00000000 0.00000000 0.00000000 0.78431373
v -19.75000000 7.79367400 0.00000000 0.00000000 0.00000000 0.78431373
v -19.75000000 -0.45632600 0.00000000 0.00000000 0.00000000 0.78431373
v -19.75000000 -8.75632600 0.00000000 0.00000000 0.00000000 0.78431373
v -12.65000000 -8.75632600 0.00000000 0.00000000 0.00000000 0.78431373
v -5.50000000 -8.75632600 0.00000000 0.00000000 0.00000000 0.78431373
v 1.65000000 -8.75632600 0.00000000 0.00000000 0.00000000 0.78431373
v 8.80000000 -8.75632600 0.00000000 0.00000000 0.00000000 0.78431373
v 8.80000000 -2.60632600 0.00000000 0.00000000 0.00000000 0.78431373
v 9.25000000 -1.80632600 0.00000000 0.00000000 0.00000000 0.78431373
v 9.95000000 -1.45632600 0.00000000 0.00000000 0.00000000 0.78431373
v 11.10000000 -1.45632600 0.00000000 0.00000000 0.00000000 0.78431373
v 11.80000000 -1.80632600 0.00000000 0.00000000 0.00000000 0.78431373
v 12.25000000 -2.60632600 0.00000000 0.00000000 0.00000000 0.78431373
v 12.25000000 -2.90632600 0.00000000 0.00000000 0.00000000 0.78431373
v 39.80000000 -2.85632600 0.00000000 0.00000000 0.00000000 0.78431373
v 12.25000000 1.74367400 0.00000000 0.00000000 0.00000000 0.78431373
v 11.80000000 0.94367400 0.00000000 0.00000000 0.00000000 0.78431373
v 11.10000000 0.59367400 0.00000000 0.00000000 0.00000000 0.78431373
v 12.25000000 -11.05632600 0.00000000 0.00000000 0.00000000 0.78431373
v 11.80000000 -11.85632600 0.00000000 0.00000000 0.00000000 0.78431373
v 11.10000000 -12.20632600 0.00000000 0.00000000 0.00000000 0.78431373
v 10.80000000 -12.20632600 0.00000000 0.00000000 0.00000000 0.78431373
v 10.85000000 -18.75632600 0.00000000 0.00000000 0.00000000 0.78431373
v 18.05000000 -18.75632600 0.00000000 0.00000000 0.00000000 0.78431373
v 25.30000000 -18.75632600 0.00000000 0.00000000 0.00000000 0.78431373
v 32.55000000 -18.75632600 0.00000000 0.00000000 0.00000000 0.78431373
v 39.80000000 -18.75632600 0.00000000 0.00000000 0.00000000 0.78431373
v 39.80000000 -10.80632600 0.00000000 0.00000000 0.00000000 0.78431373
v -13.60000000 -18.75632600 0.00000000 0.00000000 0.00000000 0.78431373
v -5.45000000 -18.75632600 0.00000000 0.00000000 0.00000000 0.78431373
v 2.70000000 -18.75632600 0.00000000 0.00000000 0.00000000 0.78431373
v 2.65000000 -12.20632600 0.00000000 0.00000000 0.00000000 0.78431373
v -5.45000000 -12.20632600 0.00000000 0.00000000 0.00000000 0.78431373
v -13.60000000 -12.20632600 0.00000000 0.00000000 0.00000000 0.78431373
f 1 2 3
f 23 1 3
f 23 3 4
f 22 23 4
f 21 22 4
f 21 4 5
f 8 9 10
f 20 21 5
f 12 13 14
f 16 17 18
f 7 8 10
f 20 5 6
f 12 14 15
f 15 16 18
f 6 7 10
f 19 20 6
f 11 12 15
f 15 18 19
f 6 10 11
f 11 15 19
f 6 11 19
f 24 25 26
f 33 24 26
f 29 30 31
f 28 29 31
f 28 31 32
f 27 28 32
f 27 32 33
f 26 27 33
f 25 24 34
f 25 34 35
f 25 35 36
f 43 25 36
f 39 40 41
f 42 43 36
f 39 41 42
f 42 36 37
f 38 39 42
f 37 38 42
f 44 45 46
f 62 44 46
f 61 62 46
f 61 46 47
f 60 61 47
f 60 47 48
f 48 49 50
f 58 59 60
f 52 53 54
f 54 55 56
f 60 48 50
f 57 58 60
f 51 52 54
f 54 56 57
f 51 54 57
f 51 57 60
f 50 51 60
f 45 44 63
f 70 45 63
f 69 70 63
f 69 63 64
f 68 69 64
f 68 64 65
f 65 66 67
f 38 37 68
f 65 67 38
f 65 38 68
f 73 74 75
f 72 73 75
f 71 72 75
f 71 75 76
f 78 79 80
f 71 76 77
f 77 78 80
f 66 71 77
f 77 80 67
f 66 77 67
f 83 75 74
f 83 74 84
f 82 83 84
f 82 84 85
f 2 1 81
f 86 2 81
f 81 82 85
f 81 85 86