# https://github.com/mikedh/trimesh
v 10.25000000 -7.25000000 0.00000000 0.00000000 0.00000000 0.78431373
v 10.20000000 -8.80000000 0.00000000 0.00000000 0.00000000 0.78431373
v 11.10000000 -8.80000000 0.00000000 0.00000000 0.00000000 0.78431373
v 11.80000000 -9.15000000 0.00000000 0.00000000 0.00000000 0.78431373
v 12.25000000 -9.95000000 0.00000000 0.00000000 0.00000000 0.78431373
v 12.25000000 -10.25000000 0.00000000 0.00000000 0.00000000 0.78431373
v 20.75000000 -10.25000000 0.00000000 0.00000000 0.00000000 0.78431373
v 20.75000000 -0.50000000 0.00000000 0.00000000 0.00000000 0.78431373
v 20.75000000 9.25000000 0.00000000 0.00000000 0.00000000 0.78431373
v 12.25000000 9.25000000 0.00000000 0.00000000 0.00000000 0.78431373
v 12.25000000 1.60000000 0.00000000 0.00000000 0.00000000 0.78431373
v 12.25000000 -6.10000000 0.00000000 0.00000000 0.00000000 0.78431373
v 11.80000000 -6.90000000 0.00000000 0.00000000 0.00000000 0.78431373
v 11.10000000 -7.25000000 0.00000000 0.00000000 0.00000000 0.78431373
v -4.80000000 -8.80000000 0.00000000 0.00000000 0.00000000 0.78431373
v -4.75000000 -5.45000000 0.00000000 0.00000000 0.00000000 0.78431373
v -5.05000000 -5.45000000 0.00000000 0.00000000 0.00000000 0.78431373
v -5.75000000 -5.10000000 0.00000000 0.00000000 0.00000000 0.78431373
v -6.20000000 -4.30000000 0.00000000 0.00000000 0.00000000 0.78431373
v -6.20000000 3.85000000 0.00000000 0.00000000 0.00000000 0.78431373
v -5.75000000 4.65000000 0.00000000 0.00000000 0.00000000 0.78431373
v -5.05000000 5.00000000 0.00000000 0.00000000 0.00000000 0.78431373
v -4.75000000 5.00000000 0.00000000 0.00000000 0.00000000 0.78431373
v -4.80000000 7.75000000 0.00000000 0.00000000 0.00000000 0.78431373
v -12.30000000 7.75000000 0.00000000 0.00000000 0.00000000 0.78431373
v -19.75000000 7.75000000 0.00000000 0.00000000 0.00000000 0.78431373
v -19.75000000 -0.50000000 0.00000000 0.00000000 0.00000000 0.78431373
v -19.75000000 -8.80000000 0.00000000 0.00000000 0.00000000 0.78431373
v -12.30000000 -8.80000000 0.00000000 0.00000000 0.00000000 0.78431373
v -4.20000000 5.00000000 0.00000000 0.00000000 0.00000000 0.78431373
v -4.15000000 7.75000000 0.00000000 0.00000000 0.00000000 0.78431373
v -3.90000000 5.00000000 0.00000000 0.00000000 0.00000000 0.78431373
v -3.20000000 4.65000000 0.00000000 0.00000000 0.00000000 0.78431373
v -2.75000000 3.85000000 0.00000000 0.00000000 0.00000000 0.78431373
v -2.75000000 -4.30000000 0.00000000 0.00000000 0.00000000 0.78431373
v -3.20000000 -5.10000000 0.00000000 0.00000000 0.00000000 0.78431373
v -3.90000000 -5.45000000 0.00000000 0.00000000 0.00000000 0.78431373
v -4.20000000 -5.45000000 0.00000000 0.00000000 0.00000000 0.78431373
v -4.15000000 -8.80000000 0.00000000 0.00000000 0.00000000 0.78431373
v 3.00000000 -8.80000000 0.00000000 0.00000000 0.00000000 0.78431373
v 9.95000000 -7.25000000 0.00000000 0.00000000 0.00000000 0.78431373
v 9.25000000 -6.90000000 0.00000000 0.00000000 0.00000000 0.78431373
v 8.80000000 -6.10000000 0.00000000 0.00000000 0.00000000 0.78431373
v 8.80000000 0.85000000 0.00000000 0.00000000 0.00000000 0.78431373
v 8.80000000 7.75000000 0.00000000 0.00000000 0.00000000 0.78431373
v 2.30000000 7.75000000 0.00000000 0.00000000 0.00000000 0.78431373
f 1 2 3
f 14 1 3
f 13 14 3
f 13 3 4
f 12 13 4
f 12 4 5
f 5 6 7
f 12 5 7
f 12 7 8
f 11 12 8
f 9 10 11
f 8 9 11
f 22 23 24
f 21 22 24
f 15 16 17
f 15 17 18
f 20 21 24
f 15 18 19
f 20 24 25
f 29 15 19
f 25 26 27
f 27 28 29
f 19 20 25
f 19 25 27
f 19 27 29
f 23 30 31
f 23 31 24
f 2 1 41
f 2 41 42
f 31 30 32
f 2 42 43
f 31 32 33
f 37 38 39
f 36 37 39
f 31 33 34
f 35 36 39
f 46 31 34
f 40 2 43
f 35 39 40
f 44 45 46
f 40 43 44
f 44 46 34
f 35 40 44
f 34 35 44
f 15 39 38
f 15 38 16